<svg xmlns="http://www.w3.org/2000/svg" viewBox="0 0 76.13 77.38"><defs><style>.cls-1{fill:none;stroke:#2a2e31;stroke-miterlimit:10;stroke-width:1.2px;}.cls-2{fill:#2a2e31;}.cls-3{fill:#fff;}</style></defs><g id="Livello_2" data-name="Livello 2"><g id="Livello_1-2" data-name="Livello 1"><path class="cls-1" d="M32.91,41.42a22.13,22.13,0,0,0-5.65,8.1c-3.46,8.8.23,17.69-.81,17.95-.72.18-2.74-4.08-3.89-8.19-1-3.46-1.14-6.14-1.52-6.12s-.25,2.71-1,6.32c-.06.31-1.2,5.3-3.2,8-5.26,7-15.16,1-16.17,4.44C.09,73.82,4,77.37,6,76.7S8.8,71,8.22,67.2C7.51,62.52,5,60.28,6.3,57.66c.11-.21,1-1.88,2.43-1.92a2.67,2.67,0,0,1,2.42,1.82c.62,1.8-1.2,4-3,5a6.64,6.64,0,0,1-5.87-.31"/><path class="cls-2" d="M51.46,30a.23.23,0,0,1,0-.32l.74-.74a.23.23,0,0,1,.32,0l2.27,2.27,7.85-7.85a1.52,1.52,0,0,0-.27-2.09l-7.66-7.66a1.52,1.52,0,0,0-2.09-.27l-3.93,3.92,2.27,2.27a.23.23,0,0,1,0,.32l-.74.74a.23.23,0,0,1-.32,0l-2.27-2.27L37.46,28.54l2.27,2.27a.22.22,0,0,1,0,.31l-.74.75a.24.24,0,0,1-.32-.05l-2.27-2.27L23.52,42.47a1.51,1.51,0,0,0,.28,2.09l7.66,7.66a1.52,1.52,0,0,0,2.09.27L53.73,32.31Z"/><rect class="cls-2" x="57.56" y="12.03" width="6.43" height="6.43" transform="translate(28.58 -38.51) rotate(45)"/><rect class="cls-2" x="61.85" y="9.47" width="6.43" height="2.97" transform="translate(26.81 -42.8) rotate(45)"/><rect class="cls-2" x="64.63" y="6.95" width="6.43" height="2.45" transform="translate(25.65 -45.58) rotate(45)"/><path class="cls-3" d="M42.5,41.57l0,0,6.17-14.3a.32.32,0,0,0-.17-.42l-3.89-1.68a.33.33,0,0,0-.43.17L38,39.61s0,0,0,0a.27.27,0,0,0,0,.2l1,3.43a.17.17,0,0,0,.24.11l3.17-1.65A.26.26,0,0,0,42.5,41.57Zm2-15.61a.32.32,0,0,1,.42-.17l3,1.28a.32.32,0,0,1,.17.42L42.26,40.87a.32.32,0,0,1-.42.17l-3-1.28a.33.33,0,0,1-.16-.43ZM41.61,41.65l-2.18,1.14a.12.12,0,0,1-.17-.08l-.67-2.37a.13.13,0,0,1,0-.13l3.09,1.33A.2.2,0,0,1,41.61,41.65Z"/><path class="cls-3" d="M49.44,23.47l-3-1.3a.82.82,0,0,0-1.07.46l-.55,1.26,0,.07-.22.51,4.48,1.94.22-.51,0-.07.55-1.27A.82.82,0,0,0,49.44,23.47Zm-4.19.61.42-1a.93.93,0,0,1,1.08-.39l2.15.93a.91.91,0,0,1,.39,1l-.42,1Z"/><rect class="cls-2" x="67.04" y="5.07" width="6.43" height="1.41" rx="0.2" transform="translate(24.66 -47.99) rotate(45)"/><path class="cls-2" d="M69,3.6,69.74.94A.26.26,0,0,1,70,.74L75.85,0a.25.25,0,0,1,.27.28l-.75,5.87a.24.24,0,0,1-.2.22L72.47,7A.26.26,0,0,1,72.23,7L69.1,3.84A.24.24,0,0,1,69,3.6Z"/></g></g></svg>